<svg width="299" height="74" viewBox="0 0 299 74" fill="none" xmlns="http://www.w3.org/2000/svg">
<path d="M0.893747 40.68H69.6938V73.48H16.8937C6.33375 73.48 0.893747 68.04 0.893747 57.48V40.68ZM0.893747 38.28V21.48C10.0137 21 15.0537 15 15.0537 4.44V0.519999H33.4537V4.44C33.4537 15 38.4937 20.2 47.6138 20.68V37.48C38.2537 37.16 29.0537 33.72 24.2537 26.36C19.4537 33.72 10.2537 37.96 0.893747 38.28ZM51.2938 37.48V0.519999H69.6938V10.92H76.8938V26.92H69.6938V37.48H51.2938ZM19.2937 54.28V55.88C19.2937 58.76 20.4137 59.88 23.2937 59.88H51.2938V54.28H19.2937ZM75.2969 40.68H144.097V73.48H91.2969C80.7369 73.48 75.2969 68.04 75.2969 57.48V40.68ZM75.2969 38.28V21.48C84.4169 21 89.4569 15 89.4569 4.44V0.519999H107.857V4.44C107.857 15 112.897 20.2 122.017 20.68V37.48C112.657 37.16 103.457 33.72 98.6569 26.36C93.8569 33.72 84.6569 37.96 75.2969 38.28ZM125.697 37.48V0.519999H144.097V10.92H151.297V26.92H144.097V37.48H125.697ZM93.6969 54.28V55.88C93.6969 58.76 94.8169 59.88 97.6969 59.88H125.697V54.28H93.6969ZM170.9 46.28C157.3 46.28 147.3 37 147.3 23.4C147.3 9.8 157.3 0.519999 170.9 0.519999H200.5C214.1 0.519999 224.1 9.8 224.1 23.4C224.1 37 214.1 46.28 200.5 46.28H194.9V57.48H223.3V73.48H148.1V57.48H176.5V46.28H170.9ZM165.78 23.4C165.78 28.2 169.3 31.08 173.7 31.08H197.7C202.1 31.08 205.62 28.2 205.62 23.4C205.62 18.6 202.1 15.72 197.7 15.72H173.7C169.3 15.72 165.78 18.6 165.78 23.4ZM245.303 46.28C231.703 46.28 221.703 37 221.703 23.4C221.703 9.8 231.703 0.519999 245.303 0.519999H274.903C288.503 0.519999 298.503 9.8 298.503 23.4C298.503 37 288.503 46.28 274.903 46.28H269.303V57.48H297.703V73.48H222.503V57.48H250.903V46.28H245.303ZM240.183 23.4C240.183 28.2 243.703 31.08 248.103 31.08H272.103C276.503 31.08 280.023 28.2 280.023 23.4C280.023 18.6 276.503 15.72 272.103 15.72H248.103C243.703 15.72 240.183 18.6 240.183 23.4Z" fill="#395593"/>
</svg>
